{"asset":{"version":"2.0","generator":"Blockbench 4.12.4 glTF exporter"},"scenes":[{"nodes":[2],"name":"blockbench_export"}],"scene":0,"nodes":[{"name":"cuboid","mesh":0},{"name":"root","children":[0]},{"children":[1]}],"bufferViews":[{"buffer":0,"byteOffset":0,"byteLength":2808,"target":34962,"byteStride":12},{"buffer":0,"byteOffset":2808,"byteLength":2808,"target":34962,"byteStride":12},{"buffer":0,"byteOffset":5616,"byteLength":1872,"target":34962,"byteStride":8},{"buffer":0,"byteOffset":7488,"byteLength":648,"target":34963}],"buffers":[{"byteLength":8136,"uri":"data:application/octet-stream;base64,"}],"accessors":[{"bufferView":0,"componentType":5126,"count":234,"max":[2.125,0.5,1.125],"min":[-2.125,0,-0.7481338977813721],"type":"VEC3"},{"bufferView":1,"componentType":5126,"count":234,"max":[1,1,0.9428090453147888],"min":[-1,-1,-1],"type":"VEC3"},{"bufferView":2,"componentType":5126,"count":234,"max":[0.984375,0.234375],"min":[0.015625,0.015625],"type":"VEC2"},{"bufferView":3,"componentType":5123,"count":324,"max":[233],"min":[0],"type":"SCALAR"}],"materials":[{"pbrMetallicRoughness":{"metallicFactor":0,"roughnessFactor":1,"baseColorTexture":{"index":0}},"alphaMode":"MASK","alphaCutoff":0.05,"doubleSided":true}],"textures":[{"sampler":0,"source":0,"name":"texture"}],"samplers":[{"magFilter":9728,"minFilter":9728,"wrapS":33071,"wrapT":33071}],"images":[{"mimeType":"image/png","uri":"data:image/png;base64,"}],"meshes":[{"primitives":[{"mode":4,"attributes":{"POSITION":0,"NORMAL":1,"TEXCOORD_0":2},"indices":3,"material":0}]}]}